<?xml version="1.0" encoding="UTF-8" standalone="no"?>
<!-- Created with Inkscape (http://www.inkscape.org/) -->

<svg
   width="61.000942mm"
   height="59.034431mm"
   viewBox="0 0 61.000942 59.034431"
   version="1.1"
   id="svg1"
   xml:space="preserve"
   xmlns="http://www.w3.org/2000/svg"
   xmlns:svg="http://www.w3.org/2000/svg"><defs
     id="defs1" /><g
     id="layer6"
     transform="translate(-19.036549,-227.77309)"><g
       id="g20"><g
         id="g15"
         transform="matrix(0.76865857,0,0,0.65604951,-5.6267375,99.543852)"
         style="fill:#a69cac;fill-opacity:1;stroke-width:1.40819"><rect
           style="fill:#a69cac;fill-opacity:1;stroke:none;stroke-width:1.30406;stroke-linecap:round;stroke-linejoin:round"
           id="rect13"
           width="67.73333"
           height="13.191559"
           x="-285.44138"
           y="65.170502"
           rx="2.4239907"
           ry="2.0688741"
           transform="rotate(-90)" /><rect
           style="fill:#a69cac;fill-opacity:1;stroke:none;stroke-width:1.30406;stroke-linecap:round;stroke-linejoin:round"
           id="rect14"
           width="67.73333"
           height="13.191559"
           x="-285.44138"
           y="87.059875"
           rx="2.4239907"
           ry="2.0688741"
           transform="rotate(-90)" /><rect
           style="fill:#a69cac;fill-opacity:1;stroke:none;stroke-width:1.30406;stroke-linecap:round;stroke-linejoin:round"
           id="rect15"
           width="67.73333"
           height="13.191559"
           x="-285.44138"
           y="43.281124"
           rx="2.4239907"
           ry="2.0688741"
           transform="rotate(-90)" /></g><path
         id="path16"
         style="fill:#a69cac;fill-opacity:1;stroke:none;stroke-width:0.92604;stroke-linecap:round;stroke-linejoin:round"
         d="m 19.974283,248.51845 c -0.363484,0.26187 -0.545377,0.60349 -0.545377,0.94523 h 60.216246 c -9.7e-5,-0.34163 -0.181149,-0.68345 -0.544514,-0.94522 L 50.849509,228.16572 c -0.726956,-0.52371 -1.89757,-0.5234 -2.624527,3.2e-4 z" /><rect
         style="fill:#474973;fill-opacity:1;stroke:none;stroke-width:0.926038;stroke-linecap:round;stroke-linejoin:round"
         id="rect12"
         width="56.674316"
         height="5.3547273"
         x="21.199875"
         y="281.45279"
         rx="1.5902576"
         ry="1.5902578" /><rect
         style="fill:#474973;fill-opacity:1;stroke:none;stroke-width:0.926035;stroke-linecap:round;stroke-linejoin:round"
         id="rect16"
         width="61.000942"
         height="4.6490917"
         x="19.036549"
         y="248.30353"
         rx="1.5902578"
         ry="1.5902579" /></g></g></svg>
