<?xml version="1.0" encoding="UTF-8" standalone="no"?>
<!-- Created with Inkscape (http://www.inkscape.org/) -->

<svg
   width="42.861488mm"
   height="76.068703mm"
   viewBox="0 0 42.861488 76.068703"
   version="1.1"
   id="svg1"
   xml:space="preserve"
   xmlns="http://www.w3.org/2000/svg"
   xmlns:svg="http://www.w3.org/2000/svg"><defs
     id="defs1" /><g
     id="layer3"
     transform="translate(-28.106285,-144.08165)"><path
       id="path1"
       style="fill:#474973;fill-opacity:1;stroke:none;stroke-width:0.926042;stroke-linecap:round;stroke-linejoin:round"
       d="m 49.537029,144.08165 c -11.835816,7e-5 -21.430671,9.62469 -21.430744,21.49732 0.01158,3.04872 1.900876,8.83425 1.930054,8.83425 l 19.50069,45.73713 19.50069,-45.73713 c 0.02918,0 1.918472,-5.78553 1.930054,-8.83425 -7.3e-5,-11.87263 -9.594928,-21.49725 -21.430744,-21.49732 z m -10e-7,11.40463 c 5.556392,4e-4 10.060614,4.51883 10.060662,10.09256 2.99e-4,5.57398 -4.504025,10.09279 -10.060662,10.09319 -5.556636,-4e-4 -10.060959,-4.51921 -10.06066,-10.09319 4.8e-5,-5.57373 4.504269,-10.09216 10.06066,-10.09256 z" /></g></svg>
