<?xml version="1.0" encoding="UTF-8" standalone="no"?>
<!-- Created with Inkscape (http://www.inkscape.org/) -->

<svg
   width="77.414886mm"
   height="47.845261mm"
   viewBox="0 0 77.414886 47.845261"
   version="1.1"
   id="svg1"
   xml:space="preserve"
   xmlns="http://www.w3.org/2000/svg"
   xmlns:svg="http://www.w3.org/2000/svg"><defs
     id="defs1" /><g
     id="layer5"
     transform="translate(-98.82476,-150.67504)"><g
       id="g19"><rect
         style="fill:#474973;fill-opacity:1;stroke:none;stroke-width:0.926041;stroke-linecap:round;stroke-linejoin:round"
         id="rect10"
         width="77.414886"
         height="47.845024"
         x="98.82476"
         y="150.67528"
         rx="3.1805074"
         ry="3.1805074" /><path
         id="rect11"
         style="fill:#a69cac;fill-opacity:1;stroke:none;stroke-width:0.926042;stroke-linecap:round;stroke-linejoin:round"
         d="m 102.00515,150.67504 c -0.33697,0 -0.661,0.0521 -0.96532,0.14831 l -1.066086,0.74208 c -0.410195,0.28554 -0.699818,0.62198 -0.869201,0.97978 -0.02651,0.0588 -0.05145,0.11866 -0.07441,0.17932 -0.290306,0.81573 0.02426,1.71234 0.943608,2.35231 l 35.036099,24.38921 c 1.39743,0.97277 3.64724,0.97277 5.04466,0 l 35.0361,-24.38921 c 0.91881,-0.6396 1.23356,-1.53541 0.94413,-2.35076 -0.0233,-0.0616 -0.0485,-0.1227 -0.0754,-0.18242 -0.16948,-0.35727 -0.45903,-0.69307 -0.86869,-0.97824 l -1.06556,-0.74207 c -1.6e-4,-5e-5 -3.6e-4,5e-5 -5.2e-4,0 -0.3042,-0.0961 -0.62851,-0.14831 -0.96531,-0.14831 z" /></g></g></svg>
